<?xml version="1.0" encoding="utf-8"?>
<!-- Generator: Adobe Illustrator 24.0.1, SVG Export Plug-In . SVG Version: 6.00 Build 0)  -->
<svg version="1.1" id="Calque_1" xmlns="http://www.w3.org/2000/svg" xmlns:xlink="http://www.w3.org/1999/xlink" x="0px" y="0px"
	 viewBox="0 0 1280 800" style="enable-background:new 0 0 1280 800;" xml:space="preserve">
<style type="text/css">
	.st0{fill:#FFFFFF;}
</style>
<g>
	<path d="M445.6,140v390h389.5V140H445.6z M639.2,142.8v383.3C534.8,525.4,450,440.7,449,336.4h94.8v-2.8H449
		c0.5-103.6,83.6-188,186.7-190.7C636.9,142.9,638,142.9,639.2,142.8z M642,143.3c51.8,0.8,93.7,43.1,93.7,95.1
		s-41.9,94.3-93.7,95.1V143.3z M642,336.4c53.4-0.8,96.5-44.4,96.5-97.9c0-43.6-28.6-80.6-68-93.3c91.5,14.4,161.7,93.8,161.7,189.3
		c0,105.2-85.2,190.9-190.3,191.7V336.4z M448.5,142.8h159c-81,13.9-145.1,78-159,159V142.8z M448.5,527.1v-159
		c13.9,81,78,145.1,159,159H448.5z M832.3,527.1H667.6c83.7-11.7,150.4-76.7,164.7-159.5V527.1z M673.7,142.8h158.6v158.6
		C818.4,220.6,754.5,156.7,673.7,142.8z"/>
	<g>
		<path d="M493.1,590.8v-4c0-1.8-1.4-3.2-3.2-3.2h-32.4v34.9h22.8v2.2h-22.8v34.9h32.4c1.8,0,3.2-1.4,3.2-3.2v-4h2.2v9.4h-48.2v-2.2
			h1.3c1.8,0,3.2-1.4,3.2-3.2v-65.6c0-1.8-1.4-3.2-3.2-3.2h-1.3v-2.2h48.2v9.4H493.1z"/>
		<path d="M560.6,645.1l1.6,1.6c-3.7,3.6-7.9,6.6-12.6,8.7c-4.1,1.8-8.4,2.9-12.8,3.3c-4.8,0.5-9.6,0-14.2-1.4
			c-12.1-3.6-21.5-13-25.1-25.1c-1.4-4.6-1.8-9.4-1.4-14.2c0.4-4.4,1.5-8.8,3.3-12.8c4.2-9.5,11.8-17.1,21.3-21.3
			c4.1-1.8,8.4-2.9,12.8-3.3c4.8-0.5,9.6,0,14.2,1.4c5.9,1.8,11.3,5,15.7,9.4l-4.2,4.2c-3.8-3.7-8.3-6.6-13.2-8.5
			c-3.9-1.5-8.1-2.3-12.3-2.4c-4.1-0.1-8.1,0.5-11.9,1.9c-9.2,3.3-16.5,10.6-19.8,19.8c-1.3,3.8-2,7.9-1.9,11.9
			c0.1,4.2,0.9,8.4,2.4,12.3c3.7,10.1,11.6,18,21.7,21.7c3.9,1.5,8.1,2.3,12.3,2.4c4.1,0.1,8.1-0.5,11.9-1.9
			C553.1,651.1,557.2,648.5,560.6,645.1z"/>
		<path d="M642,621.2c-0.4,4.4-1.5,8.8-3.4,12.8c-1.6,3.5-3.6,6.8-6.1,9.7c-0.8,1-1.7,2-2.6,2.9c0,0,0,0,0,0.1c0,0,0,0-0.1,0
			c-0.9,0.9-1.9,1.8-2.9,2.6c-3,2.4-6.2,4.5-9.7,6.1c-4.1,1.8-8.4,2.9-12.8,3.3c-17.7,1.7-34.2-9.4-39.3-26.5
			c-1.4-4.6-1.8-9.4-1.4-14.2c0.4-4.4,1.5-8.8,3.4-12.8c1.6-3.5,3.6-6.8,6.1-9.7c0.8-1,1.7-2,2.7-2.9c0.9-0.9,1.9-1.8,2.9-2.7
			c3-2.4,6.2-4.5,9.7-6.1c4.1-1.8,8.4-2.9,12.8-3.3c4.8-0.5,9.6,0,14.2,1.4c12.1,3.6,21.5,13,25.1,25.1
			C641.9,611.6,642.4,616.5,642,621.2z M636,633c1.3-3.8,2-7.9,1.9-11.9c-0.1-4.2-0.9-8.4-2.4-12.3c-3.7-10.1-11.7-18-21.7-21.7
			c-3.9-1.5-8.1-2.3-12.3-2.4c-14.2-0.4-27,8.3-31.7,21.7c-1.3,3.8-2,7.9-1.9,11.9c0.1,4.2,0.9,8.4,2.4,12.3
			c3.7,10.1,11.7,18,21.7,21.7c3.9,1.5,8.1,2.3,12.3,2.4c4.1,0.1,8.1-0.5,11.9-1.9C625.4,649.5,632.7,642.2,636,633L636,633z"/>
		<path d="M736.3,581.4v9.4h-2.2v-4c0-1.8-1.4-3.2-3.2-3.2h-23.7v68.8c0,1.8,1.4,3.2,3.2,3.2h1.3v2.2h-15v-2.2h1.3
			c1.8,0,3.2-1.4,3.2-3.2v-68.8h-23.8c-1.8,0-3.2,1.4-3.2,3.2v4h-2.2v-9.4H736.3z"/>
		<path d="M742.5,646.1c1.8,0,3.2,0.6,4.3,1.8c1.1,1.2,1.6,2.6,1.6,4.1c0,1.5-0.5,2.9-1.6,4.1c-1.1,1.2-2.6,1.8-4.3,1.8
			c-1.8,0-3.2-0.6-4.3-1.8c-1.1-1.2-1.6-2.6-1.6-4.1c0-1.5,0.5-2.9,1.6-4.1C739.3,646.7,740.7,646.1,742.5,646.1z"/>
		<path d="M817.8,622.7c-1.7,3.1-4.1,5.8-6.8,8c-2.6,2.1-5.4,3.7-8.5,4.8c-3.6,1.3-7.3,2-11.1,2h-12.1v15c0,1.8,1.4,3.2,3.2,3.2h1.3
			v2.2h-15v-2.2h1.3c1.8,0,3.2-1.4,3.2-3.2v-65.6c0-1.8-1.4-3.2-3.2-3.2h-1.3v-2.2h22.6c3.8,0,7.5,0.7,11.1,2c3.1,1.1,6,2.8,8.5,4.8
			c2.8,2.2,5.1,5,6.8,8.1C822.3,604.5,822.3,614.4,817.8,622.7z M813,598.7c-1.2-2.7-2.8-5.3-4.8-7.5c-3-3.4-7-5.8-11.4-6.9
			c-1.8-0.4-3.6-0.7-5.5-0.7h-12.1v51.6h12.1c3.5,0,6.9-0.8,10-2.3c2.6-1.3,4.9-3.1,6.8-5.2c2-2.2,3.6-4.7,4.8-7.5
			C816,613.4,816,605.5,813,598.7z"/>
		<path d="M829.4,646.1c1.8,0,3.2,0.6,4.3,1.8c1.1,1.2,1.6,2.6,1.6,4.1c0,1.5-0.5,2.9-1.6,4.1c-1.1,1.2-2.6,1.8-4.3,1.8
			c-1.8,0-3.2-0.6-4.3-1.8c-1.1-1.2-1.6-2.6-1.6-4.1c0-1.5,0.5-2.9,1.6-4.1C826.2,646.7,827.7,646.1,829.4,646.1z"/>
	</g>
</g>
</svg>
